<svg xmlns="http://www.w3.org/2000/svg" width="24" height="24" viewBox="0 0 24 24">
  <path class="icon-fill" fill="#000000" d="M23.6181818,8.01818182 C23.6181818,7.96363636 23.6181818,7.96363636 23.6181818,7.90909091 C23.6181818,7.90909091 23.6181818,7.85454545 23.6181818,7.85454545 C23.6181818,7.85454545 23.6181818,7.8 23.6181818,7.8 C23.6181818,7.8 23.6181818,7.74545455 23.6181818,7.74545455 C23.6181818,7.74545455 23.6181818,7.69090909 23.5636364,7.69090909 C23.5636364,7.69090909 23.5636364,7.63636364 23.5090909,7.63636364 C23.5090909,7.63636364 23.4545455,7.58181818 23.4545455,7.58181818 C23.4545455,7.58181818 23.4545455,7.52727273 23.4,7.52727273 C23.4,7.52727273 23.3454545,7.47272727 23.3454545,7.47272727 C23.3454545,7.47272727 23.3454545,7.47272727 23.2909091,7.41818182 C23.2909091,7.41818182 23.2363636,7.36363636 23.2363636,7.36363636 C23.2363636,7.36363636 23.1818182,7.36363636 23.1818182,7.30909091 C23.1818182,7.30909091 23.1818182,7.30909091 23.1818182,7.30909091 L12.3818182,0.163636364 C12.0545455,-0.0545454545 11.6181818,-0.0545454545 11.2363636,0.163636364 L0.436363636,7.36363636 C0.436363636,7.36363636 0.436363636,7.36363636 0.436363636,7.36363636 C0.436363636,7.36363636 0.381818182,7.36363636 0.381818182,7.41818182 C0.381818182,7.41818182 0.327272727,7.47272727 0.327272727,7.47272727 C0.327272727,7.47272727 0.272727273,7.47272727 0.272727273,7.52727273 C0.272727273,7.52727273 0.218181818,7.58181818 0.218181818,7.58181818 C0.218181818,7.58181818 0.218181818,7.63636364 0.163636364,7.63636364 C0.163636364,7.63636364 0.109090909,7.69090909 0.109090909,7.69090909 C0.109090909,7.69090909 0.109090909,7.74545455 0.0545454545,7.74545455 C0.0545454545,7.74545455 0.0545454545,7.8 0,7.8 C0,7.8 0,7.85454545 0,7.85454545 C0,7.85454545 0,7.90909091 0,7.90909091 C0,7.90909091 0,7.96363636 0,7.96363636 C0,8.01818182 0,8.01818182 0,8.07272727 C0,8.07272727 0,8.12727273 0,8.12727273 C0,8.18181818 0,8.23636364 0,8.23636364 L0,15.4363636 C0,15.4909091 0,15.5454545 0,15.5454545 C0,15.5454545 0,15.6 0,15.6 C0,15.6545455 0,15.6545455 0,15.7090909 C0,15.7090909 0,15.7636364 0,15.7636364 C0,15.7636364 0,15.8181818 0,15.8181818 C0,15.8181818 0,15.8727273 0,15.8727273 C0,15.8727273 0,15.9272727 0.0545454545,15.9272727 C0.0545454545,15.9272727 0.0545454545,15.9818182 0.109090909,15.9818182 C0.109090909,15.9818182 0.163636364,16.0363636 0.163636364,16.0363636 C0.163636364,16.0363636 0.163636364,16.0909091 0.218181818,16.0909091 C0.218181818,16.0909091 0.272727273,16.1454545 0.272727273,16.1454545 C0.272727273,16.1454545 0.272727273,16.1454545 0.327272727,16.2 C0.327272727,16.2 0.381818182,16.2545455 0.381818182,16.2545455 C0.381818182,16.2545455 0.436363636,16.2545455 0.436363636,16.3090909 C0.436363636,16.3090909 0.436363636,16.3090909 0.436363636,16.3090909 L11.2363636,23.4545455 C11.4,23.5636364 11.6181818,23.6181818 11.7818182,23.6181818 C11.9454545,23.6181818 12.1636364,23.5636364 12.3272727,23.4545455 L23.1272727,16.2545455 C23.1272727,16.2545455 23.1272727,16.2545455 23.1272727,16.2545455 C23.1272727,16.2545455 23.1818182,16.2545455 23.1818182,16.2 C23.1818182,16.2 23.2363636,16.1454545 23.2363636,16.1454545 C23.2363636,16.1454545 23.2363636,16.1454545 23.2909091,16.0909091 C23.2909091,16.0909091 23.3454545,16.0363636 23.3454545,16.0363636 C23.3454545,16.0363636 23.3454545,15.9818182 23.4,15.9818182 C23.4,15.9818182 23.4545455,15.9272727 23.4545455,15.9272727 C23.4545455,15.9272727 23.4545455,15.8727273 23.5090909,15.8727273 C23.5090909,15.8727273 23.5090909,15.8181818 23.5636364,15.8181818 C23.5636364,15.8181818 23.5636364,15.7636364 23.5636364,15.7636364 C23.5636364,15.7636364 23.5636364,15.7090909 23.5636364,15.7090909 C23.5636364,15.7090909 23.5636364,15.6545455 23.5636364,15.6545455 C23.5636364,15.6 23.5636364,15.6 23.5636364,15.5454545 C23.5636364,15.5454545 23.5636364,15.4909091 23.5636364,15.4909091 C23.5636364,15.4363636 23.5636364,15.3818182 23.5636364,15.3818182 L23.5636364,8.23636364 C23.6181818,8.18181818 23.6181818,8.12727273 23.6181818,8.01818182 C23.6181818,8.07272727 23.6181818,8.07272727 23.6181818,8.01818182 L23.6181818,8.01818182 Z M11.8363636,14.2363636 L8.23636364,11.8363636 L11.8363636,9.43636364 L15.4363636,11.8363636 L11.8363636,14.2363636 L11.8363636,14.2363636 Z M10.8,7.63636364 L6.38181818,10.5818182 L2.83636364,8.18181818 L10.8,2.89090909 L10.8,7.63636364 L10.8,7.63636364 Z M4.58181818,11.8363636 L2.01818182,13.5272727 L2.01818182,10.1454545 L4.58181818,11.8363636 L4.58181818,11.8363636 Z M6.38181818,13.0363636 L10.8,15.9818182 L10.8,20.7272727 L2.83636364,15.4363636 L6.38181818,13.0363636 L6.38181818,13.0363636 Z M12.8181818,15.9818182 L17.2363636,13.0363636 L20.7818182,15.4363636 L12.8181818,20.7272727 L12.8181818,15.9818182 L12.8181818,15.9818182 L12.8181818,15.9818182 Z M19.0909091,11.8363636 L21.6545455,10.1454545 L21.6545455,13.5272727 L19.0909091,11.8363636 L19.0909091,11.8363636 Z M17.2363636,10.5818182 L12.8181818,7.63636364 L12.8181818,2.89090909 L20.7818182,8.18181818 L17.2363636,10.5818182 L17.2363636,10.5818182 Z"/>
</svg>
