<svg xmlns="http://www.w3.org/2000/svg" width="350" height="392"><g fill="#E535AB" fill-rule="evenodd"><path d="M32.468 298.66l-14.376-8.301 160.151-277.38 14.376 8.301z"/><path d="M14.8 268.2h320.3v16.6H14.8z"/><path d="M181.348 370.026l-160.21-92.5 8.3-14.376 160.21 92.5zM320.522 128.947l-160.21-92.5 8.3-14.376 160.21 92.5z"/><path d="M29.482 128.884l-8.3-14.376 160.21-92.5 8.3 14.376z"/><path d="M317.568 298.662L157.418 21.283l14.375-8.3 160.151 277.379zM27.5 103.5h16.6v185H27.5z"/><path d="M305.9 103.5h16.6v185h-16.6z"/><path d="M178.522 363l-7.25-12.557 139.338-80.45 7.25 12.557z"/><path d="M344.5 293.9c-9.6 16.7-31 22.4-47.7 12.8-16.7-9.6-22.4-31-12.8-47.7 9.6-16.7 31-22.4 47.7-12.8 16.8 9.7 22.5 31 12.8 47.7M65.9 133c-9.6 16.7-31 22.4-47.7 12.8-16.7-9.6-22.4-31-12.8-47.7 9.6-16.7 31-22.4 47.7-12.8 16.7 9.7 22.4 31 12.8 47.7M5.5 293.9c-9.6-16.7-3.9-38 12.8-47.7 16.7-9.6 38-3.9 47.7 12.8 9.6 16.7 3.9 38-12.8 47.7-16.8 9.6-38.1 3.9-47.7-12.8M284.1 133c-9.6-16.7-3.9-38 12.8-47.7 16.7-9.6 38-3.9 47.7 12.8 9.6 16.7 3.9 38-12.8 47.7-16.7 9.6-38.1 3.9-47.7-12.8M175 391.8c-19.3 0-34.9-15.6-34.9-34.9 0-19.3 15.6-34.9 34.9-34.9 19.3 0 34.9 15.6 34.9 34.9 0 19.2-15.6 34.9-34.9 34.9M175 70c-19.3 0-34.9-15.6-34.9-34.9C140.1 15.8 155.7.2 175 .2c19.3 0 34.9 15.6 34.9 34.9 0 19.3-15.6 34.9-34.9 34.9"/></g></svg>