<svg xmlns="http://www.w3.org/2000/svg" width="129" height="147"><g fill="#689F63" fill-rule="evenodd"><path d="M64.53 146.24c-1.947 0-3.88-.51-5.587-1.493L41.16 134.219c-2.656-1.485-1.36-2.01-.484-2.313 3.541-1.24 4.26-1.52 8.04-3.667.397-.227.917-.147 1.324.093l13.661 8.107c.494.267 1.194.267 1.651 0l53.267-30.747c.493-.28.813-.853.813-1.44V42.785c0-.613-.32-1.16-.824-1.466l-53.245-30.72a1.638 1.638 0 0 0-1.64 0l-53.235 30.72a1.698 1.698 0 0 0-.844 1.453v61.467c0 .587.32 1.147.827 1.427l14.586 8.426c7.92 3.96 12.76-.706 12.76-5.4V48.025c0-.866.68-1.533 1.547-1.533h6.747c.84 0 1.533.667 1.533 1.533v60.694c0 10.56-5.76 16.627-15.773 16.627-3.08 0-5.507 0-12.28-3.334L5.617 113.96c-3.453-2-5.586-5.733-5.586-9.72V42.772c0-4 2.133-7.733 5.586-9.707l53.32-30.76c3.374-1.906 7.854-1.906 11.2 0l53.254 30.774c3.44 1.986 5.587 5.706 5.587 9.706v61.467a11.27 11.27 0 0 1-5.587 9.707l-53.253 30.76a11.195 11.195 0 0 1-5.614 1.493"/><path fill-rule="nonzero" d="M80.983 103.886c-23.307 0-28.194-10.7-28.194-19.672 0-.854.688-1.534 1.543-1.534h6.88c.76 0 1.4.554 1.52 1.304 1.04 7.01 4.133 10.547 18.227 10.547 11.227 0 16-2.536 16-8.49 0-3.426-1.36-5.973-18.8-7.68-14.587-1.44-23.6-4.653-23.6-16.32 0-10.746 9.066-17.146 24.253-17.146 17.054 0 25.507 5.92 26.574 18.64a1.552 1.552 0 0 1-1.547 1.68h-6.92c-.72 0-1.347-.507-1.493-1.2-1.667-7.374-5.694-9.734-16.64-9.734-12.254 0-13.68 4.267-13.68 7.467 0 3.88 1.68 5.013 18.213 7.2 16.373 2.173 24.147 5.24 24.147 16.747 0 11.6-9.68 18.253-26.56 18.253l.077-.062z"/></g></svg>