<svg xmlns="http://www.w3.org/2000/svg" width="411" height="411" xmlns:xlink="http://www.w3.org/1999/xlink"><defs><path id="a" d="M.06.129h410.811V411H.06z"/></defs><g fill="none" fill-rule="evenodd"><mask id="b" fill="#fff"><use xlink:href="#a"/></mask><path fill="#BE5F8A" d="M205.436.129c113.459 0 205.435 91.977 205.435 205.436S318.895 411 205.436 411 0 319.024 0 205.565 91.977.129 205.436.129" mask="url(#b)"/><path fill="#FFFFFE" d="M164.609 273.996c2.989 11.056 2.661 21.366-.426 30.703a50.596 50.596 0 0 1-2.461 6.078c-2.381 4.94-5.576 9.564-9.489 13.832-11.936 13.022-28.613 17.946-35.764 13.797-7.722-4.476-3.854-22.836 9.985-37.464 14.888-15.739 36.309-25.858 36.309-25.858l-.033-.064c.617-.332 1.244-.674 1.879-1.024zm169.69-185.938c-9.303-36.486-69.801-48.48-127.059-28.139-34.075 12.107-70.964 31.107-97.488 55.916-31.537 29.498-36.566 55.172-34.493 65.9 7.312 37.854 59.179 62.597 80.501 80.955v.111c-6.287 3.095-52.304 26.383-63.073 50.191-11.363 25.117 1.809 43.141 10.529 45.567 27.019 7.517 54.745-6.004 69.645-28.229 14.379-21.448 13.182-49.144 6.933-62.921 8.62-2.274 18.669-3.293 31.44-1.801 36.037 4.209 43.108 26.711 41.756 36.126-1.351 9.418-8.91 14.596-11.437 16.159-2.528 1.564-3.299 2.105-3.086 3.267.306 1.69 1.476 1.627 3.631 1.262 2.966-.5 18.923-7.66 19.605-25.043.869-22.07-20.281-46.758-57.73-46.113-15.423.266-25.121 1.733-32.126 4.34a71.867 71.867 0 0 0-1.59-1.758c-23.152-24.701-65.951-42.174-64.136-75.381.66-12.072 4.856-43.861 82.239-82.42 63.39-31.587 114.136-22.895 122.906-3.631 12.527 27.521-27.121 78.673-92.952 86.051-25.081 2.812-38.287-6.909-41.572-10.529-3.459-3.811-3.974-3.983-5.265-3.268-2.104 1.165-.771 4.53 0 6.536 1.965 5.115 10.031 14.186 23.782 18.698 12.096 3.97 41.544 6.151 77.157-7.624 39.885-15.429 71.031-58.347 61.883-94.222z"/></g></svg>